<svg xmlns="http://www.w3.org/2000/svg" viewBox="0 0 64 64" fill="none">
  <rect width="64" height="64" rx="16" fill="url(#g)" />
  <path d="M18 34c2.4 6.5 8.1 14 14 14s11.6-7.5 14-14c2.5-6.4.7-13-4.5-17.3C37.3 13.3 33.7 12 32 12s-5.3 1.3-9.5 4.7C17.3 21 15.5 27.6 18 34z" fill="#fff" opacity="0.9"/>
  <path d="M32 22c3.3 0 6 2.7 6 6s-2.7 6-6 6-6-2.7-6-6 2.7-6 6-6z" fill="#0f172a" opacity="0.9" />
  <defs>
    <linearGradient id="g" x1="10" y1="8" x2="54" y2="56" gradientUnits="userSpaceOnUse">
      <stop stop-color="#2563EB" />
      <stop offset="1" stop-color="#7C3AED" />
    </linearGradient>
  </defs>
</svg>
